<svg width="805" height="59" viewBox="0 0 605 59" fill="none" xmlns="http://www.w3.org/2000/svg">
    <path d="M79.5379 57.7497H76.1879L67.0279 51.5197H64.2579V57.7497H62.0879V43.6797H64.2579V49.4897H67.0579L75.8779 43.6797H79.0979L73.7679 47.1997L68.6879 50.5197L74.3179 54.2397L79.5379 57.7497Z" fill="white"/>
    <path d="M101.008 57.7497H98.518L96.508 54.5397H85.918L83.928 57.7497H81.418L89.978 43.6797H92.468L101.008 57.7497ZM87.608 51.7197L87.088 52.5097H95.348L94.848 51.7197L91.228 45.5897L87.608 51.7197Z" fill="white"/>
    <path d="M118.138 43.6797H120.308V57.7497H118.138L105.638 46.4097L105.698 48.4197V57.7497H103.528V43.6797H105.678L118.178 55.0197L118.138 52.9497V43.6797Z" fill="white"/>
    <path d="M141.338 56.9296C140.428 57.2296 137.918 58.0596 134.188 58.0596C126.868 58.0596 123.818 54.8997 123.818 50.7197C123.818 46.5397 126.878 43.3896 134.188 43.3896C137.928 43.3896 140.438 44.2096 141.338 44.5196L140.838 46.4697C139.148 45.9697 136.938 45.4196 134.188 45.4196C128.318 45.4196 126.028 47.6496 126.028 50.7296C126.028 53.8096 128.318 56.0396 134.188 56.0396C136.938 56.0396 139.148 55.4996 140.838 54.9896L141.338 56.9296Z" fill="white"/>
    <path d="M144.638 57.7497V43.6797H159.888V45.7097H146.798V49.4897H158.678V51.5197H146.798V55.7197H160.288V57.7497H144.638Z" fill="white"/>
    <path d="M163.798 57.7497V43.6797H165.968V55.7197H178.448V57.7497H163.798Z" fill="white"/>
    <path d="M200.118 57.7497H197.628L195.618 54.5397H185.028L183.038 57.7497H180.528L189.088 43.6797H191.578L200.118 57.7497ZM186.708 51.7197L186.188 52.5097H194.448L193.948 51.7197L190.328 45.5897L186.708 51.7197Z" fill="white"/>
    <path d="M202.628 43.6797H213.778C216.788 43.6797 219.208 44.8297 219.208 48.1997C219.208 51.5297 216.738 52.6597 213.758 52.6397H212.918L219.788 57.7397H216.408L209.838 52.7197H204.788V57.7397H202.618V43.6797H202.628ZM213.798 50.6997C215.608 50.6997 216.978 50.0597 216.978 48.2097C216.978 46.3597 215.638 45.7197 213.848 45.7197H204.808V50.6997H213.798V50.6997Z" fill="white"/>
    <path d="M222.688 43.6797H224.857V57.7497H222.688V43.6797Z" fill="white"/>
    <path d="M246.947 57.7497H244.457L242.447 54.5397H231.857L229.867 57.7497H227.357L235.917 43.6797H238.407L246.947 57.7497ZM233.537 51.7197L233.017 52.5097H241.277L240.777 51.7197L237.157 45.5897L233.537 51.7197Z" fill="white"/>
    <path d="M259.218 43.6797H270.368C273.378 43.6797 275.798 44.8297 275.798 48.1997C275.798 51.5297 273.328 52.6597 270.348 52.6397H269.508L276.378 57.7397H272.998L266.428 52.7197H261.378V57.7397H259.208V43.6797H259.218ZM270.388 50.6997C272.198 50.6997 273.568 50.0597 273.568 48.2097C273.568 46.3597 272.228 45.7197 270.438 45.7197H261.398V50.6997H270.388V50.6997Z" fill="white"/>
    <path d="M297.858 57.7497H295.368L293.358 54.5397H282.768L280.778 57.7497H278.268L286.828 43.6797H289.318L297.858 57.7497ZM284.448 51.7197L283.928 52.5097H292.188L291.688 51.7197L288.068 45.5897L284.448 51.7197Z" fill="white"/>
    <path d="M300.368 57.7497V43.6797H307.258C314.578 43.6797 317.628 46.5297 317.628 50.7097C317.628 54.8897 314.578 57.7397 307.258 57.7397H300.368V57.7497ZM302.538 45.7097V55.7197H307.258C313.108 55.7197 315.398 53.7897 315.398 50.7197C315.398 47.6497 313.108 45.7197 307.258 45.7197H302.538V45.7097Z" fill="white"/>
    <path d="M338.258 56.9296C337.358 57.2296 334.838 58.0596 331.108 58.0596C323.798 58.0596 320.738 54.8997 320.738 50.7197C320.738 46.5397 323.798 43.3896 331.108 43.3896C334.848 43.3896 337.358 44.2096 338.258 44.5196L337.758 46.4697C336.068 45.9697 333.858 45.4196 331.108 45.4196C325.238 45.4196 322.948 47.6496 322.948 50.7296C322.948 53.8096 325.238 56.0396 331.108 56.0396C333.858 56.0396 336.078 55.4996 337.758 54.9896L338.258 56.9296Z" fill="white"/>
    <path d="M359.888 43.6797L351.108 53.4697V57.7497H348.938V53.4697L340.138 43.6797H342.908L346.038 47.1997L350.018 51.7197L353.998 47.1997L357.108 43.6797H359.888Z" fill="white"/>
    <path d="M372.138 57.7497V43.6797H382.668C385.898 43.6797 388.718 44.9297 388.718 48.6497C388.718 52.3697 385.898 53.6297 382.668 53.6297H374.308V57.7497H372.138ZM374.308 45.7097V51.5997H382.808C384.878 51.5997 386.488 50.8597 386.488 48.6497C386.488 46.4597 384.878 45.7097 382.808 45.7097H374.308Z" fill="white"/>
    <path d="M392.018 43.6797H403.168C406.178 43.6797 408.598 44.8297 408.598 48.1997C408.598 51.5297 406.128 52.6597 403.148 52.6397H402.308L409.178 57.7397H405.798L399.228 52.7197H394.178V57.7397H392.008V43.6797H392.018ZM403.198 50.6997C405.008 50.6997 406.378 50.0597 406.378 48.2097C406.378 46.3597 405.038 45.7197 403.248 45.7197H394.208V50.6997H403.198V50.6997Z" fill="white"/>
    <path d="M430.658 57.7497H428.168L426.158 54.5397H415.568L413.578 57.7497H411.068L419.628 43.6797H422.118L430.658 57.7497ZM417.248 51.7197L416.728 52.5097H424.988L424.488 51.7197L420.868 45.5897L417.248 51.7197Z" fill="white"/>
    <path d="M446.498 57.7497L444.308 51.7197L442.578 46.7197L440.828 51.7197L438.638 57.7497H436.328L430.138 43.6797H432.508L435.138 49.7097L437.408 55.0197L439.258 49.6897L441.428 43.6797H443.698L445.888 49.7097L447.718 55.0197L449.988 49.7097L452.638 43.6797H454.998L448.828 57.7497H446.498Z" fill="white"/>
    <path d="M472.098 43.6797H474.268V57.7497H472.098L459.598 46.4097L459.658 48.4197V57.7497H457.488V43.6797H459.638L472.138 55.0197L472.098 52.9497V43.6797V43.6797Z" fill="white"/>
    <path d="M478.168 57.7497V43.6797H493.418V45.7097H480.338V49.4897H492.218V51.5197H480.338V55.7197H493.818V57.7497H478.168Z" fill="white"/>
    <path d="M506.478 51.7199V49.6899H516.068V51.1399C516.068 56.3299 511.728 58.0499 506.478 58.0499C500.148 58.0499 496.928 54.8899 496.928 50.7099C496.928 46.5299 499.988 43.3799 507.298 43.3799C511.038 43.3799 513.548 44.2199 514.448 44.5099L513.948 46.4399C512.258 45.9399 510.048 45.4099 507.298 45.4099C501.428 45.4099 499.138 47.6399 499.138 50.7199C499.138 53.7999 501.588 56.0299 506.468 56.0299C510.968 56.0299 513.888 54.5199 513.888 51.8699V51.7299H506.478V51.7199Z" fill="white"/>
    <path d="M528.807 43.3799C535.017 43.3799 538.257 46.5299 538.257 50.7099C538.257 54.8899 535.027 58.0499 528.807 58.0499C522.597 58.0499 519.357 54.8899 519.357 50.7099C519.357 46.5299 522.597 43.3799 528.807 43.3799ZM528.807 56.0199C533.667 56.0199 536.027 53.7899 536.027 50.7099C536.027 47.6399 533.677 45.3999 528.807 45.3999C523.927 45.3999 521.577 47.6299 521.577 50.7099C521.567 53.7899 523.917 56.0199 528.807 56.0199Z" fill="white"/>
    <path d="M0.0482563 27.1102L3.04826 3.82021C3.29826 1.68021 5.02826 0.720215 7.62826 0.720215H16.2783C18.8683 0.720215 20.4483 1.74021 20.8583 3.82021L25.1283 23.9102C25.3783 24.9802 25.9883 25.2802 27.0583 25.2802H27.8183C28.8883 25.2802 29.4983 24.9702 29.6983 23.9102L34.0183 3.82021C34.4783 1.68021 36.0483 0.720215 38.6483 0.720215H47.3983C50.0383 0.720215 51.7683 1.69021 52.0283 3.82021L54.9783 25.8902C55.2883 28.6902 54.8783 28.9402 50.7583 28.9402C46.5383 28.9402 46.1283 28.4802 45.7183 25.5802L43.2283 5.65021C43.0783 4.63021 42.5683 4.33022 41.4983 4.33022H40.6383C39.5683 4.33022 38.9083 4.6402 38.6483 5.6002L34.2783 25.6902C33.8783 27.7802 32.2983 28.7902 29.6983 28.7902H21.2983C18.7083 28.7902 17.1783 27.7702 16.7183 25.6902L12.3483 5.6002C12.1483 4.6302 11.4283 4.33022 10.4183 4.33022H9.55826C8.48826 4.33022 7.92826 4.64021 7.77826 5.65021L5.13826 26.9102C4.92826 28.4902 4.57826 28.9402 2.58826 28.9402C0.248256 28.9402 -0.161744 28.6902 0.0482563 27.1102Z" fill="white"/>
    <path d="M66.3281 25.8902V3.82021C66.3281 1.23021 66.8381 0.720215 70.3481 0.720215H71.2681C74.5281 0.720215 75.1381 1.23021 75.1381 3.82021V25.8902C75.1381 28.4902 74.5281 28.9402 71.2681 28.9402H70.3481C66.8381 28.9402 66.3281 28.4802 66.3281 25.8902Z" fill="white"/>
    <path d="M85.3584 14.85C85.3584 5.38999 89.7784 0.25 105.298 0.25C112.668 0.25 118.008 1.17 119.338 1.42C120.808 1.73 121.068 1.92999 121.068 3.50999C121.068 5.18999 120.608 5.6 119.338 5.34C117.048 5.03 112.728 4.21999 107.178 4.26999C96.9084 4.31999 94.6184 7.67999 94.6184 14.85C94.6184 22.02 96.9084 25.38 107.178 25.43C112.718 25.48 117.048 24.72 119.338 24.36C120.608 24.11 121.068 24.51 121.068 26.14C121.068 27.77 120.818 27.97 119.338 28.28C118.018 28.53 112.678 29.45 105.298 29.45C89.7784 29.45 85.3584 24.31 85.3584 14.85Z" fill="white"/>
    <path d="M131.038 24.87V3.80997C131.038 1.26997 131.448 0.709961 135.208 0.709961H135.968C139.678 0.709961 139.838 1.46997 139.838 4.72997V10.68C139.838 11.8 140.298 12.36 141.568 12.36H158.048C159.318 12.36 159.828 11.8 159.828 10.68V4.72997C159.828 1.46997 159.978 0.709961 163.848 0.709961H164.768C168.028 0.709961 168.638 1.21997 168.638 3.80997V24.87C168.638 28.28 168.388 28.94 164.618 28.94H163.708C160.348 28.94 159.838 28.33 159.838 25.89V17.96C159.838 16.84 159.328 16.28 158.058 16.28H141.578C140.308 16.28 139.848 16.84 139.848 17.96V25.89C139.848 28.49 139.088 28.94 135.878 28.94H134.958C131.188 28.94 131.038 28.28 131.038 24.87Z" fill="white"/>
    <path d="M207.839 22.84C207.179 21.67 206.929 21.26 205.399 21.26H187.649C186.069 21.26 185.869 21.67 185.209 22.84L182.919 27.11C181.949 28.94 180.889 28.94 179.049 28.94C176.909 28.94 176.199 28.43 176.909 27.11L189.829 3.30997C190.999 1.16997 191.969 0.709961 194.609 0.709961H202.499C205.139 0.709961 206.109 1.21997 207.229 3.30997L219.639 25.94C220.959 28.33 220.099 28.94 216.379 28.94C213.219 28.94 210.989 28.69 210.179 27.16L207.839 22.84ZM203.469 17.5C204.489 17.5 204.739 16.84 204.389 16.12L198.899 5.33997C198.439 4.41997 197.929 4.26996 196.869 4.26996H196.359C195.289 4.26996 194.829 4.41997 194.329 5.33997L188.679 16.12C188.319 16.83 188.629 17.5 189.599 17.5H203.469Z" fill="white"/>
    <path d="M230.789 25.48V17.85C230.789 16.73 230.279 16.17 229.009 16.17H226.009C224.639 16.17 224.429 15.77 224.429 14.24C224.429 12.92 224.639 12.36 226.009 12.36H229.009C230.279 12.36 230.789 11.8 230.789 10.68V3.80997C230.789 1.21997 231.299 0.709961 234.809 0.709961H235.729C238.989 0.709961 239.599 1.21997 239.599 3.80997V10.68C239.599 11.8 240.059 12.36 241.329 12.36H249.929C251.309 12.36 251.559 12.92 251.559 14.24C251.559 15.77 251.309 16.17 249.929 16.17H241.329C240.059 16.17 239.599 16.73 239.599 17.85V23.4C239.599 24.47 240.059 25.08 241.329 25.08H258.929C260.299 25.08 260.559 25.69 260.559 26.96C260.559 28.53 260.309 28.94 258.929 28.94H234.919C231.499 28.94 230.789 28.23 230.789 25.48Z" fill="white"/>
    <path d="M294.169 28.9402C290.659 28.9402 290.149 28.4802 290.149 25.8902V6.31021C290.149 5.19021 289.639 4.6302 288.369 4.6302H276.719C275.349 4.6302 275.139 4.17021 275.139 2.65021C275.139 1.33021 275.349 0.720215 276.719 0.720215H312.319C313.689 0.720215 313.949 1.33021 313.949 2.65021C313.949 4.18021 313.699 4.6302 312.319 4.6302H300.669C299.399 4.6302 298.939 5.19021 298.939 6.31021V25.8902C298.939 28.4902 298.329 28.9402 295.069 28.9402H294.169V28.9402Z" fill="white"/>
    <path d="M316.818 14.8C316.818 6.05 320.018 0 337.668 0C355.368 0 358.518 6.05 358.518 14.8C358.518 23.49 355.368 29.6 337.668 29.6C320.018 29.6 316.818 23.5 316.818 14.8ZM349.208 14.75C349.208 7.93 348.038 3.56 337.658 3.56C327.338 3.56 326.068 7.88 326.068 14.75C326.068 21.67 327.338 26.04 337.658 26.04C348.038 26.04 349.208 21.67 349.208 14.75Z" fill="white"/>
    <path d="M367.278 27.1102L370.278 3.82021C370.528 1.68021 372.258 0.720215 374.858 0.720215H383.508C386.098 0.720215 387.678 1.74021 388.088 3.82021L392.358 23.9102C392.608 24.9802 393.218 25.2802 394.288 25.2802H395.048C396.118 25.2802 396.728 24.9702 396.928 23.9102L401.258 3.82021C401.718 1.68021 403.288 0.720215 405.888 0.720215H414.638C417.278 0.720215 419.018 1.69021 419.268 3.82021L422.218 25.8902C422.528 28.6902 422.118 28.9402 417.998 28.9402C413.778 28.9402 413.368 28.4802 412.958 25.5802L410.468 5.65021C410.318 4.63021 409.808 4.33022 408.738 4.33022H407.878C406.808 4.33022 406.148 4.6402 405.898 5.6002L401.528 25.6902C401.118 27.7802 399.538 28.7902 396.948 28.7902H388.558C385.968 28.7902 384.438 27.7702 383.978 25.6902L379.608 5.6002C379.398 4.6302 378.688 4.33022 377.678 4.33022H376.818C375.748 4.33022 375.188 4.64021 375.038 5.65021L372.398 26.9102C372.198 28.4902 371.838 28.9402 369.858 28.9402C367.478 28.9402 367.078 28.6902 367.278 27.1102Z" fill="white"/>
    <path d="M431.019 14.85C431.019 5.38999 435.439 0.25 450.959 0.25C458.329 0.25 463.669 1.17 464.999 1.42C466.469 1.73 466.729 1.92999 466.729 3.50999C466.729 5.18999 466.269 5.6 464.999 5.34C462.709 5.03 458.389 4.21999 452.839 4.26999C442.569 4.31999 440.279 7.67999 440.279 14.85C440.279 22.02 442.569 25.38 452.839 25.43C458.379 25.48 462.709 24.72 464.999 24.36C466.269 24.11 466.729 24.51 466.729 26.14C466.729 27.77 466.479 27.97 464.999 28.28C463.679 28.53 458.339 29.45 450.959 29.45C435.439 29.45 431.019 24.31 431.019 14.85Z" fill="white"/>
    <path d="M498.108 8.39021C500.848 7.07021 501.158 6.87022 501.158 5.80022C501.158 4.88022 500.698 4.6302 499.278 4.6302H477.148C475.778 4.6302 475.418 4.07021 475.418 2.65021C475.418 1.38021 475.778 0.720215 477.148 0.720215H503.398C507.468 0.720215 509.548 1.99021 509.548 5.76021C509.548 9.53021 508.888 10.5902 505.068 12.4202L486.858 21.3202C484.108 22.6402 483.808 22.7902 483.808 23.8602C483.808 24.7802 484.268 25.0302 485.688 25.0302H508.478C509.848 25.0302 510.208 25.6402 510.208 27.0202C510.208 28.3402 509.848 28.9502 508.478 28.9502H481.618C477.498 28.9502 475.418 27.7302 475.418 23.9702C475.418 20.2102 476.078 19.1902 479.898 17.3102L498.108 8.39021Z" fill="white"/>
    <path d="M547.408 22.84C546.748 21.67 546.488 21.26 544.968 21.26H527.218C525.648 21.26 525.438 21.67 524.778 22.84L522.488 27.11C521.518 28.94 520.458 28.94 518.618 28.94C516.478 28.94 515.768 28.43 516.478 27.11L529.398 3.30997C530.568 1.16997 531.538 0.709961 534.178 0.709961H542.058C544.698 0.709961 545.668 1.21997 546.788 3.30997L559.198 25.94C560.518 28.33 559.658 28.94 555.938 28.94C552.788 28.94 550.548 28.69 549.738 27.16L547.408 22.84ZM543.028 17.5C544.048 17.5 544.298 16.84 543.948 16.12L538.458 5.33997C537.998 4.41997 537.488 4.26996 536.428 4.26996H535.918C534.848 4.26996 534.388 4.41997 533.888 5.33997L528.238 16.12C527.878 16.83 528.188 17.5 529.158 17.5H543.028Z" fill="white"/>
    <path d="M589.628 11.55C589.118 11.95 588.918 12.16 588.918 12.77C588.918 13.33 589.118 13.53 589.628 13.99L602.398 24.97C603.418 25.83 604.488 26.9 604.488 27.57C604.488 28.43 603.018 28.94 599.508 28.94C595.028 28.94 594.218 28.84 592.188 27.16L581.908 17.95C580.738 16.88 580.228 16.78 578.598 16.78H578.248C576.978 16.78 576.668 17.34 576.668 18.46V24.87C576.668 28.28 576.358 28.94 572.798 28.94H572.038C568.328 28.94 567.868 28.38 567.868 25.89V4.82997C567.868 1.52997 567.768 0.709961 572.038 0.709961H572.798C576.558 0.709961 576.668 1.52997 576.668 4.82997V11.44C576.668 12.56 576.978 13.12 578.248 13.12H578.598C580.128 13.12 580.588 12.87 581.698 11.95L593.088 2.74997C595.428 0.81997 596.348 0.709961 598.168 0.709961C600.658 0.709961 601.728 0.969965 601.728 1.72997C601.778 2.08997 601.418 2.43996 600.918 2.84996L589.628 11.55Z" fill="white"/>
</svg>