<svg width="477" height="16" viewBox="0 0 477 16" fill="none" xmlns="http://www.w3.org/2000/svg">
    <path d="M17.5398 14.9699H14.1898L5.02984 8.7399H2.25985V14.9699H0.0898438V0.899902H2.25985V6.7099H5.05984L13.8798 0.899902H17.0998L11.7698 4.41991L6.68985 7.7399L12.3198 11.4599L17.5398 14.9699Z" fill="white"/>
    <path d="M39.0089 14.9699H36.5189L34.5089 11.7599H23.9189L21.9289 14.9699H19.4189L27.979 0.899902H30.4689L39.0089 14.9699ZM25.6089 8.93991L25.0889 9.7299H33.3489L32.8489 8.93991L29.229 2.80991L25.6089 8.93991Z" fill="white"/>
    <path d="M56.1393 0.899902H58.3093V14.9699H56.1393L43.6393 3.6299L43.6993 5.63991V14.9699H41.5293V0.899902H43.6793L56.1793 12.2399L56.1393 10.1699V0.899902Z" fill="white"/>
    <path d="M79.3393 14.1499C78.4293 14.4499 75.9193 15.2799 72.1893 15.2799C64.8693 15.2799 61.8193 12.1199 61.8193 7.93987C61.8193 3.75987 64.8793 0.609863 72.1893 0.609863C75.9293 0.609863 78.4393 1.42985 79.3393 1.73985L78.8393 3.68987C77.1493 3.18987 74.9393 2.63986 72.1893 2.63986C66.3193 2.63986 64.0293 4.86986 64.0293 7.94986C64.0293 11.0299 66.3193 13.2599 72.1893 13.2599C74.9393 13.2599 77.1493 12.7199 78.8393 12.2099L79.3393 14.1499Z" fill="white"/>
    <path d="M82.6387 14.9699V0.899902H97.8887V2.9299H84.7987V6.7099H96.6787V8.7399H84.7987V12.9399H98.2887V14.9699H82.6387Z" fill="white"/>
    <path d="M101.799 14.9699V0.899902H103.969V12.9399H116.449V14.9699H101.799Z" fill="white"/>
    <path d="M138.119 14.9699H135.629L133.619 11.7599H123.029L121.039 14.9699H118.529L127.089 0.899902H129.579L138.119 14.9699ZM124.709 8.93991L124.189 9.7299H132.449L131.949 8.93991L128.329 2.80991L124.709 8.93991Z" fill="white"/>
    <path d="M140.629 0.899902H151.779C154.789 0.899902 157.209 2.04991 157.209 5.41991C157.209 8.74991 154.739 9.87991 151.759 9.85991H150.919L157.789 14.9599H154.409L147.839 9.93991H142.789V14.9599H140.619V0.899902H140.629ZM151.799 7.91991C153.609 7.91991 154.979 7.2799 154.979 5.4299C154.979 3.5799 153.639 2.93991 151.849 2.93991H142.809V7.91991H151.799V7.91991Z" fill="white"/>
    <path d="M160.688 0.899902H162.858V14.9699H160.688V0.899902Z" fill="white"/>
    <path d="M184.948 14.9699H182.458L180.448 11.7599H169.858L167.868 14.9699H165.358L173.918 0.899902H176.408L184.948 14.9699ZM171.538 8.93991L171.018 9.7299H179.278L178.778 8.93991L175.158 2.80991L171.538 8.93991Z" fill="white"/>
    <path d="M197.219 0.899902H208.369C211.379 0.899902 213.799 2.04991 213.799 5.41991C213.799 8.74991 211.329 9.87991 208.349 9.85991H207.509L214.379 14.9599H210.999L204.429 9.93991H199.379V14.9599H197.209V0.899902H197.219ZM208.389 7.91991C210.199 7.91991 211.569 7.2799 211.569 5.4299C211.569 3.5799 210.229 2.93991 208.439 2.93991H199.399V7.91991H208.389V7.91991Z" fill="white"/>
    <path d="M235.859 14.9699H233.369L231.359 11.7599H220.769L218.779 14.9699H216.269L224.829 0.899902H227.319L235.859 14.9699ZM222.449 8.93991L221.929 9.7299H230.189L229.689 8.93991L226.069 2.80991L222.449 8.93991Z" fill="white"/>
    <path d="M238.369 14.9699V0.899902H245.259C252.579 0.899902 255.629 3.7499 255.629 7.9299C255.629 12.1099 252.579 14.9599 245.259 14.9599H238.369V14.9699ZM240.539 2.9299V12.9399H245.259C251.109 12.9399 253.399 11.0099 253.399 7.93991C253.399 4.86991 251.109 2.93991 245.259 2.93991H240.539V2.9299Z" fill="white"/>
    <path d="M276.259 14.1499C275.359 14.4499 272.839 15.2799 269.109 15.2799C261.799 15.2799 258.739 12.1199 258.739 7.93987C258.739 3.75987 261.799 0.609863 269.109 0.609863C272.849 0.609863 275.359 1.42985 276.259 1.73985L275.759 3.68987C274.069 3.18987 271.859 2.63986 269.109 2.63986C263.239 2.63986 260.949 4.86986 260.949 7.94986C260.949 11.0299 263.239 13.2599 269.109 13.2599C271.859 13.2599 274.079 12.7199 275.759 12.2099L276.259 14.1499Z" fill="white"/>
    <path d="M297.889 0.899902L289.109 10.6899V14.9699H286.939V10.6899L278.139 0.899902H280.909L284.039 4.41991L288.019 8.93991L291.999 4.41991L295.109 0.899902H297.889Z" fill="white"/>
    <path d="M310.139 14.9699V0.899902H320.669C323.899 0.899902 326.719 2.1499 326.719 5.8699C326.719 9.5899 323.899 10.8499 320.669 10.8499H312.309V14.9699H310.139ZM312.309 2.9299V8.8199H320.809C322.879 8.8199 324.489 8.0799 324.489 5.8699C324.489 3.6799 322.879 2.9299 320.809 2.9299H312.309Z" fill="white"/>
    <path d="M330.019 0.899902H341.169C344.179 0.899902 346.599 2.04991 346.599 5.41991C346.599 8.74991 344.129 9.87991 341.149 9.85991H340.309L347.179 14.9599H343.799L337.229 9.93991H332.179V14.9599H330.009V0.899902H330.019ZM341.199 7.91991C343.009 7.91991 344.379 7.2799 344.379 5.4299C344.379 3.5799 343.039 2.93991 341.249 2.93991H332.209V7.91991H341.199V7.91991Z" fill="white"/>
    <path d="M368.659 14.9699H366.169L364.159 11.7599H353.569L351.579 14.9699H349.069L357.629 0.899902H360.119L368.659 14.9699ZM355.249 8.93991L354.729 9.7299H362.989L362.489 8.93991L358.869 2.80991L355.249 8.93991Z" fill="white"/>
    <path d="M384.499 14.9699L382.309 8.93991L380.579 3.93991L378.829 8.93991L376.639 14.9699H374.329L368.139 0.899902H370.509L373.139 6.9299L375.409 12.2399L377.259 6.90991L379.429 0.899902H381.699L383.889 6.9299L385.719 12.2399L387.989 6.9299L390.639 0.899902H392.999L386.829 14.9699H384.499Z" fill="white"/>
    <path d="M410.099 0.899902H412.269V14.9699H410.099L397.599 3.6299L397.659 5.63991V14.9699H395.489V0.899902H397.639L410.139 12.2399L410.099 10.1699V0.899902V0.899902Z" fill="white"/>
    <path d="M416.169 14.9699V0.899902H431.419V2.9299H418.339V6.7099H430.219V8.7399H418.339V12.9399H431.819V14.9699H416.169Z" fill="white"/>
    <path d="M444.479 8.94011V6.91011H454.069V8.36011C454.069 13.5501 449.729 15.2701 444.479 15.2701C438.149 15.2701 434.929 12.1101 434.929 7.9301C434.929 3.7501 437.989 0.600098 445.299 0.600098C449.039 0.600098 451.549 1.4401 452.449 1.7301L451.949 3.66011C450.259 3.16011 448.049 2.6301 445.299 2.6301C439.429 2.6301 437.139 4.86011 437.139 7.94011C437.139 11.0201 439.589 13.2501 444.469 13.2501C448.969 13.2501 451.889 11.7401 451.889 9.0901V8.9501H444.479V8.94011Z" fill="white"/>
    <path d="M466.808 0.600098C473.018 0.600098 476.258 3.7501 476.258 7.9301C476.258 12.1101 473.028 15.2701 466.808 15.2701C460.598 15.2701 457.358 12.1101 457.358 7.9301C457.358 3.7501 460.598 0.600098 466.808 0.600098ZM466.808 13.2401C471.668 13.2401 474.028 11.0101 474.028 7.9301C474.028 4.8601 471.678 2.6201 466.808 2.6201C461.928 2.6201 459.578 4.8501 459.578 7.9301C459.568 11.0101 461.918 13.2401 466.808 13.2401Z" fill="white"/>
</svg>