<svg width="60" height="89" viewBox="0 0 60 89" fill="none" xmlns="http://www.w3.org/2000/svg">
    <path d="M22.8656 58.4433C19.744 58.4433 17.2058 55.8895 17.2058 52.7484H17.2036V38.4091H17.2058C17.2058 38.4018 17.2036 38.3916 17.2036 38.382V34.808L25.6773 43.3266V39.1456L16.3437 29.7625H8.6018V32.7178C10.1593 32.7178 11.5707 33.3519 12.5957 34.3772C13.6185 35.4026 14.2565 36.8199 14.2638 38.3828V52.7521H14.266C14.266 55.8902 11.7256 58.4441 8.60107 58.4441V61.3994H22.8649V58.4433H22.8656Z" fill="white"/>
    <path d="M51.3961 32.7171V29.7618H43.6571L34.4093 39.0556V43.2367L42.7943 34.8073V38.404C42.7943 38.4062 42.7943 38.4091 42.7943 38.4091V52.7513C42.7943 54.3193 42.1585 55.744 41.1334 56.7737C40.1084 57.8041 38.692 58.4433 37.1323 58.4433V61.3987C37.1345 61.3987 37.1345 61.3987 37.1345 61.3987H51.3982V58.4433H51.3713C48.2592 58.4287 45.7341 55.8793 45.7341 52.7484V38.404C45.7362 35.268 48.2766 32.7171 51.3961 32.7171Z" fill="white"/>
    <path d="M31.4695 67.0906V53.098V52.7513V46.1919V42.0109V18.3748H37.1315C38.6935 18.3748 40.1106 19.014 41.1356 20.0445C42.1606 21.0749 42.7965 22.4988 42.7965 24.0697H45.7362V15.4202H14.2638V24.0697H17.2036C17.2036 20.9287 19.7439 18.3748 22.8656 18.3748H28.5305V35.9642V42.0131V46.1941V49.8625V52.7506V53.0972V67.0899C28.5305 70.231 25.9901 72.7848 22.8656 72.7848V75.7401H37.1323V72.7848C34.0099 72.7855 31.4695 70.2317 31.4695 67.0906Z" fill="white"/>
    <path d="M29.9985 0C13.4577 0 0 13.5297 0 30.1603V58.8397C0 66.8946 3.12164 74.4698 8.78874 80.1669C14.4537 85.8618 21.986 89 29.9985 89C46.5415 89 60 75.4703 60 58.8397V30.1603C60 13.529 46.5415 0 29.9985 0ZM57.061 58.8389C57.061 73.8401 44.9207 86.0439 29.9993 86.0439C22.7724 86.0439 15.977 83.2129 10.8664 78.0753C5.75367 72.9377 2.93977 66.1062 2.93977 58.8389V30.1603C2.93977 15.1591 15.08 2.95533 29.9993 2.95533C44.9214 2.95533 57.061 15.1591 57.061 30.1603V58.8389Z" fill="white"/>
</svg>
