<svg width="60" height="89" viewBox="0 0 60 89" fill="none" xmlns="http://www.w3.org/2000/svg">
    <g clip-path="url(#clip0)">
        <path d="M43.6563 28.5312L29.9997 42.1879L16.3431 28.5312H8.60254V31.4714C11.7167 31.4714 14.2499 33.997 14.2653 37.106V51.3997C14.2653 54.5215 11.7243 57.0625 8.60254 57.0625V60.0026H22.8656V58.5338V57.065C19.7438 57.065 17.2054 54.5241 17.2054 51.4023V37.1392C17.2054 37.129 17.2054 37.1213 17.2054 37.1111V33.5543L29.9997 46.3485L42.7939 33.5543V37.1341C42.7939 37.1367 42.7939 37.1367 42.7939 37.1392V51.4048C42.7939 54.5266 40.253 57.0676 37.1312 57.0676V60.0077C37.1338 60.0077 37.1338 60.0077 37.1338 60.0077H51.3968V58.5389V57.0701H51.3687C48.2571 57.0548 45.7315 54.519 45.7315 51.4074V37.129C45.7341 34.0072 48.2724 31.4714 51.3942 31.4714V28.5312H43.6563Z" fill="white"/>
        <path d="M31.4694 65.6631H28.5319C28.5319 68.7849 25.9909 71.3258 22.8691 71.3258V74.266H37.1348V71.3258C34.0104 71.3284 31.4694 68.7875 31.4694 65.6631Z" fill="white"/>
        <path d="M31.4714 51.397H28.5312V65.6626H31.4714V51.397Z" fill="white"/>
        <path d="M30 0C13.457 0 0 13.457 0 30V58.5312C0 66.543 3.1218 74.0788 8.78966 79.7441C14.455 85.4094 21.9882 88.5312 30 88.5312C46.543 88.5312 60 75.0742 60 58.5312V30C60 13.457 46.543 0 30 0ZM57.0599 58.5312C57.0599 73.4519 44.9207 85.5911 30 85.5911C22.7738 85.5911 15.9775 82.7764 10.8675 77.6663C5.75486 72.5537 2.94012 65.7574 2.94012 58.5312V30C2.94012 15.0793 15.0793 2.94012 30 2.94012C44.9207 2.94012 57.0599 15.0793 57.0599 30V58.5312Z" fill="white"/>
        <path d="M22.8656 17.2033H28.5283V37.1317H31.4684V17.2033H37.1312C40.253 17.2033 42.7939 19.7442 42.7939 22.866H45.734V14.2632H37.1312H22.8656H14.2627V22.866H17.2028C17.2028 19.7442 19.7438 17.2033 22.8656 17.2033Z" fill="white"/>
    </g>
    <defs>
        <clipPath id="clip0">
            <rect width="60" height="88.5312" fill="white"/>
        </clipPath>
    </defs>
</svg>