<svg width="605" height="30" viewBox="0 0 605 30" fill="none" xmlns="http://www.w3.org/2000/svg">
    <path d="M0.0482563 27.1102L3.04826 3.82021C3.29826 1.68021 5.02826 0.720215 7.62826 0.720215H16.2783C18.8683 0.720215 20.4483 1.74021 20.8583 3.82021L25.1283 23.9102C25.3783 24.9802 25.9883 25.2802 27.0583 25.2802H27.8183C28.8883 25.2802 29.4983 24.9702 29.6983 23.9102L34.0183 3.82021C34.4783 1.68021 36.0483 0.720215 38.6483 0.720215H47.3983C50.0383 0.720215 51.7683 1.69021 52.0283 3.82021L54.9783 25.8902C55.2883 28.6902 54.8783 28.9402 50.7583 28.9402C46.5383 28.9402 46.1283 28.4802 45.7183 25.5802L43.2283 5.65021C43.0783 4.63021 42.5683 4.33022 41.4983 4.33022H40.6383C39.5683 4.33022 38.9083 4.6402 38.6483 5.6002L34.2783 25.6902C33.8783 27.7802 32.2983 28.7902 29.6983 28.7902H21.2983C18.7083 28.7902 17.1783 27.7702 16.7183 25.6902L12.3483 5.6002C12.1483 4.6302 11.4283 4.33022 10.4183 4.33022H9.55826C8.48826 4.33022 7.92826 4.64021 7.77826 5.65021L5.13826 26.9102C4.92826 28.4902 4.57826 28.9402 2.58826 28.9402C0.248256 28.9402 -0.161744 28.6902 0.0482563 27.1102Z" fill="white"/>
    <path d="M66.3271 25.8902V3.82021C66.3271 1.23021 66.8371 0.720215 70.3471 0.720215H71.2671C74.5271 0.720215 75.1371 1.23021 75.1371 3.82021V25.8902C75.1371 28.4902 74.5271 28.9402 71.2671 28.9402H70.3471C66.8371 28.9402 66.3271 28.4802 66.3271 25.8902Z" fill="white"/>
    <path d="M85.3594 14.85C85.3594 5.38999 89.7794 0.25 105.299 0.25C112.669 0.25 118.009 1.17 119.339 1.42C120.809 1.73 121.069 1.92999 121.069 3.50999C121.069 5.18999 120.609 5.6 119.339 5.34C117.049 5.03 112.729 4.21999 107.179 4.26999C96.9094 4.31999 94.6194 7.67999 94.6194 14.85C94.6194 22.02 96.9094 25.38 107.179 25.43C112.719 25.48 117.049 24.72 119.339 24.36C120.609 24.11 121.069 24.51 121.069 26.14C121.069 27.77 120.819 27.97 119.339 28.28C118.019 28.53 112.679 29.45 105.299 29.45C89.7794 29.45 85.3594 24.31 85.3594 14.85Z" fill="white"/>
    <path d="M131.037 24.87V3.80997C131.037 1.26997 131.447 0.709961 135.207 0.709961H135.967C139.677 0.709961 139.837 1.46997 139.837 4.72997V10.68C139.837 11.8 140.297 12.36 141.567 12.36H158.047C159.317 12.36 159.827 11.8 159.827 10.68V4.72997C159.827 1.46997 159.977 0.709961 163.847 0.709961H164.767C168.027 0.709961 168.637 1.21997 168.637 3.80997V24.87C168.637 28.28 168.387 28.94 164.617 28.94H163.707C160.347 28.94 159.837 28.33 159.837 25.89V17.96C159.837 16.84 159.327 16.28 158.057 16.28H141.577C140.307 16.28 139.847 16.84 139.847 17.96V25.89C139.847 28.49 139.087 28.94 135.877 28.94H134.957C131.187 28.94 131.037 28.28 131.037 24.87Z" fill="white"/>
    <path d="M207.84 22.84C207.18 21.67 206.93 21.26 205.4 21.26H187.65C186.07 21.26 185.87 21.67 185.21 22.84L182.92 27.11C181.95 28.94 180.89 28.94 179.05 28.94C176.91 28.94 176.2 28.43 176.91 27.11L189.83 3.30997C191 1.16997 191.97 0.709961 194.61 0.709961H202.5C205.14 0.709961 206.11 1.21997 207.23 3.30997L219.64 25.94C220.96 28.33 220.1 28.94 216.38 28.94C213.22 28.94 210.99 28.69 210.18 27.16L207.84 22.84ZM203.47 17.5C204.49 17.5 204.74 16.84 204.39 16.12L198.9 5.33997C198.44 4.41997 197.93 4.26996 196.87 4.26996H196.36C195.29 4.26996 194.83 4.41997 194.33 5.33997L188.68 16.12C188.32 16.83 188.63 17.5 189.6 17.5H203.47Z" fill="white"/>
    <path d="M230.79 25.48V17.85C230.79 16.73 230.28 16.17 229.01 16.17H226.01C224.64 16.17 224.43 15.77 224.43 14.24C224.43 12.92 224.64 12.36 226.01 12.36H229.01C230.28 12.36 230.79 11.8 230.79 10.68V3.80997C230.79 1.21997 231.3 0.709961 234.81 0.709961H235.73C238.99 0.709961 239.6 1.21997 239.6 3.80997V10.68C239.6 11.8 240.06 12.36 241.33 12.36H249.93C251.31 12.36 251.56 12.92 251.56 14.24C251.56 15.77 251.31 16.17 249.93 16.17H241.33C240.06 16.17 239.6 16.73 239.6 17.85V23.4C239.6 24.47 240.06 25.08 241.33 25.08H258.93C260.3 25.08 260.56 25.69 260.56 26.96C260.56 28.53 260.31 28.94 258.93 28.94H234.92C231.5 28.94 230.79 28.23 230.79 25.48Z" fill="white"/>
    <path d="M294.17 28.9402C290.66 28.9402 290.15 28.4802 290.15 25.8902V6.31021C290.15 5.19021 289.64 4.6302 288.37 4.6302H276.72C275.35 4.6302 275.14 4.17021 275.14 2.65021C275.14 1.33021 275.35 0.720215 276.72 0.720215H312.32C313.69 0.720215 313.95 1.33021 313.95 2.65021C313.95 4.18021 313.7 4.6302 312.32 4.6302H300.67C299.4 4.6302 298.94 5.19021 298.94 6.31021V25.8902C298.94 28.4902 298.33 28.9402 295.07 28.9402H294.17V28.9402Z" fill="white"/>
    <path d="M316.819 14.8C316.819 6.05 320.019 0 337.669 0C355.369 0 358.519 6.05 358.519 14.8C358.519 23.49 355.369 29.6 337.669 29.6C320.019 29.6 316.819 23.5 316.819 14.8ZM349.209 14.75C349.209 7.93 348.039 3.56 337.659 3.56C327.339 3.56 326.069 7.88 326.069 14.75C326.069 21.67 327.339 26.04 337.659 26.04C348.039 26.04 349.209 21.67 349.209 14.75Z" fill="white"/>
    <path d="M367.279 27.1102L370.279 3.82021C370.529 1.68021 372.259 0.720215 374.859 0.720215H383.509C386.099 0.720215 387.679 1.74021 388.089 3.82021L392.359 23.9102C392.609 24.9802 393.219 25.2802 394.289 25.2802H395.049C396.119 25.2802 396.729 24.9702 396.929 23.9102L401.259 3.82021C401.719 1.68021 403.289 0.720215 405.889 0.720215H414.639C417.279 0.720215 419.019 1.69021 419.269 3.82021L422.219 25.8902C422.529 28.6902 422.119 28.9402 417.999 28.9402C413.779 28.9402 413.369 28.4802 412.959 25.5802L410.469 5.65021C410.319 4.63021 409.809 4.33022 408.739 4.33022H407.879C406.809 4.33022 406.149 4.6402 405.899 5.6002L401.529 25.6902C401.119 27.7802 399.539 28.7902 396.949 28.7902H388.559C385.969 28.7902 384.439 27.7702 383.979 25.6902L379.609 5.6002C379.399 4.6302 378.689 4.33022 377.679 4.33022H376.819C375.749 4.33022 375.189 4.64021 375.039 5.65021L372.399 26.9102C372.199 28.4902 371.839 28.9402 369.859 28.9402C367.479 28.9402 367.079 28.6902 367.279 27.1102Z" fill="white"/>
    <path d="M431.02 14.85C431.02 5.38999 435.44 0.25 450.96 0.25C458.33 0.25 463.67 1.17 465 1.42C466.47 1.73 466.73 1.92999 466.73 3.50999C466.73 5.18999 466.27 5.6 465 5.34C462.71 5.03 458.39 4.21999 452.84 4.26999C442.57 4.31999 440.28 7.67999 440.28 14.85C440.28 22.02 442.57 25.38 452.84 25.43C458.38 25.48 462.71 24.72 465 24.36C466.27 24.11 466.73 24.51 466.73 26.14C466.73 27.77 466.48 27.97 465 28.28C463.68 28.53 458.34 29.45 450.96 29.45C435.44 29.45 431.02 24.31 431.02 14.85Z" fill="white"/>
    <path d="M498.107 8.39021C500.847 7.07021 501.157 6.87022 501.157 5.80022C501.157 4.88022 500.697 4.6302 499.277 4.6302H477.147C475.777 4.6302 475.417 4.07021 475.417 2.65021C475.417 1.38021 475.777 0.720215 477.147 0.720215H503.397C507.467 0.720215 509.547 1.99021 509.547 5.76021C509.547 9.53021 508.887 10.5902 505.067 12.4202L486.857 21.3202C484.107 22.6402 483.807 22.7902 483.807 23.8602C483.807 24.7802 484.267 25.0302 485.687 25.0302H508.477C509.847 25.0302 510.207 25.6402 510.207 27.0202C510.207 28.3402 509.847 28.9502 508.477 28.9502H481.617C477.497 28.9502 475.417 27.7302 475.417 23.9702C475.417 20.2102 476.077 19.1902 479.897 17.3102L498.107 8.39021Z" fill="white"/>
    <path d="M547.407 22.84C546.747 21.67 546.487 21.26 544.967 21.26H527.217C525.647 21.26 525.437 21.67 524.777 22.84L522.487 27.11C521.517 28.94 520.457 28.94 518.617 28.94C516.477 28.94 515.767 28.43 516.477 27.11L529.397 3.30997C530.567 1.16997 531.537 0.709961 534.177 0.709961H542.057C544.697 0.709961 545.667 1.21997 546.787 3.30997L559.197 25.94C560.517 28.33 559.657 28.94 555.937 28.94C552.787 28.94 550.547 28.69 549.737 27.16L547.407 22.84ZM543.027 17.5C544.047 17.5 544.297 16.84 543.947 16.12L538.457 5.33997C537.997 4.41997 537.487 4.26996 536.427 4.26996H535.917C534.847 4.26996 534.387 4.41997 533.887 5.33997L528.237 16.12C527.877 16.83 528.187 17.5 529.157 17.5H543.027Z" fill="white"/>
    <path d="M589.629 11.55C589.119 11.95 588.919 12.16 588.919 12.77C588.919 13.33 589.119 13.53 589.629 13.99L602.399 24.97C603.419 25.83 604.489 26.9 604.489 27.57C604.489 28.43 603.019 28.94 599.509 28.94C595.029 28.94 594.219 28.84 592.189 27.16L581.909 17.95C580.739 16.88 580.229 16.78 578.599 16.78H578.249C576.979 16.78 576.669 17.34 576.669 18.46V24.87C576.669 28.28 576.359 28.94 572.799 28.94H572.039C568.329 28.94 567.869 28.38 567.869 25.89V4.82997C567.869 1.52997 567.769 0.709961 572.039 0.709961H572.799C576.559 0.709961 576.669 1.52997 576.669 4.82997V11.44C576.669 12.56 576.979 13.12 578.249 13.12H578.599C580.129 13.12 580.589 12.87 581.699 11.95L593.089 2.74997C595.429 0.81997 596.349 0.709961 598.169 0.709961C600.659 0.709961 601.729 0.969965 601.729 1.72997C601.779 2.08997 601.419 2.43996 600.919 2.84996L589.629 11.55Z" fill="white"/>
</svg>