<?xml version="1.0" encoding="utf-8"?>
<!-- Generator: Adobe Illustrator 25.2.0, SVG Export Plug-In . SVG Version: 6.00 Build 0)  -->
<svg version="1.1" xmlns="http://www.w3.org/2000/svg" xmlns:xlink="http://www.w3.org/1999/xlink" x="0px" y="0px"
	 viewBox="0 0 234.48 345.98" style="enable-background:new 0 0 234.48 345.98;" xml:space="preserve">
<style type="text/css">
	.st0{fill:#FFFFFF;}
	.st1{fill:none;stroke:#C7C6C6;stroke-width:0.5;stroke-miterlimit:10;}
	.st2{fill:#0753A1;}
	.st3{fill:#E9EEF4;}
	.st4{fill:#DAB277;}
	.st5{fill:none;stroke:#000000;stroke-width:9;stroke-linecap:round;stroke-linejoin:round;stroke-miterlimit:10;}
	.st6{fill:none;}
	.st7{fill:none;stroke:#0753A1;stroke-width:3;stroke-miterlimit:10;}
	.st8{fill:#0753A1;stroke:#0753A1;stroke-miterlimit:10;}
	.st9{fill:#0753A1;stroke:#0753A1;stroke-width:3;stroke-miterlimit:10;}
	.st10{fill:none;stroke:#0753A1;stroke-width:12;stroke-miterlimit:10;}
	.st11{fill:#0753A1;stroke:#0753A1;stroke-width:12;stroke-linejoin:bevel;stroke-miterlimit:10;}
	.st12{opacity:0.5;}
	.st13{fill:none;stroke:#000000;stroke-width:8;stroke-miterlimit:10;}
	.st14{fill:none;stroke:#000000;stroke-width:12;stroke-miterlimit:10;}
	.st15{stroke:#000000;stroke-width:12;stroke-miterlimit:10;}
	.st16{fill:#0755A1;}
</style>
<g id="Warstwa_1">
</g>
<g id="Warstwa_2">
	<g>
		<path class="st3" d="M170.61,111.5l-53.37,53.37L63.87,111.5H33.62v11.49h0c12.17,0,22.07,9.87,22.13,22.02v55.86h0
			c0,12.2-9.93,22.13-22.13,22.13v11.49h55.74v-5.74h0c0,0,0,0,0,0v-5.74c-12.2,0-22.12-9.93-22.12-22.13h0v-55.74h0
			c0-0.04,0-0.07,0-0.11v-13.9l50,50l50-50v13.99c0,0.01,0,0.01,0,0.02h0v55.75h0c0,12.2-9.93,22.13-22.13,22.13v11.49
			c0.01,0,0.01,0,0.01,0h55.74v-5.74c0,0,0,0,0,0h0v-5.74h-0.11c-12.16-0.06-22.03-9.97-22.03-22.13h0V145.1
			c0.01-12.2,9.93-22.11,22.13-22.11V111.5c0,0,0,0,0,0l0,0H170.61z"/>
		<path class="st3" d="M122.98,256.61H111.5c0,12.2-9.93,22.13-22.13,22.13v11.49h55.75v-11.49
			C132.91,278.75,122.98,268.82,122.98,256.61z"/>
		<rect x="111.5" y="200.86" class="st3" width="11.49" height="55.75"/>
		<path class="st3" d="M117.24,0C52.59,0,0,52.59,0,117.24v111.5c0,31.31,12.2,60.76,34.35,82.9
			c22.14,22.14,51.58,34.34,82.89,34.34c64.65,0,117.24-52.59,117.24-117.24v-111.5C234.48,52.59,181.89,0,117.24,0z M222.99,228.74
			c0,58.31-47.44,105.75-105.75,105.75c-28.24,0-54.8-11-74.77-30.97c-19.98-19.98-30.98-46.54-30.98-74.78v-111.5
			c0-58.31,47.44-105.75,105.75-105.75s105.75,47.44,105.75,105.75V228.74z"/>
		<path class="st3" d="M89.36,67.23L89.36,67.23h22.13v77.88h11.49V67.23h22.13l0,0c12.2,0,22.13,9.93,22.13,22.13h11.49V55.74
			h-33.62l0,0H89.36l0,0H55.74v33.62h11.49C67.23,77.16,77.16,67.23,89.36,67.23z"/>
	</g>
</g>
</svg>
