<?xml version="1.0" encoding="utf-8"?>
<!-- Generator: Adobe Illustrator 25.2.0, SVG Export Plug-In . SVG Version: 6.00 Build 0)  -->
<svg version="1.1" xmlns="http://www.w3.org/2000/svg" xmlns:xlink="http://www.w3.org/1999/xlink" x="0px" y="0px"
	 viewBox="0 0 843.59 482.21" style="enable-background:new 0 0 843.59 482.21;" xml:space="preserve">
<style type="text/css">
	.st0{fill:#FFFFFF;}
	.st1{fill:none;stroke:#C7C6C6;stroke-width:0.5;stroke-miterlimit:10;}
	.st2{fill:#0753A1;}
	.st3{fill:#E9EEF4;}
	.st4{fill:#DAB277;}
	.st5{fill:none;stroke:#000000;stroke-width:9;stroke-linecap:round;stroke-linejoin:round;stroke-miterlimit:10;}
	.st6{fill:none;}
	.st7{fill:none;stroke:#0753A1;stroke-width:3;stroke-miterlimit:10;}
	.st8{fill:#0753A1;stroke:#0753A1;stroke-miterlimit:10;}
	.st9{fill:#0753A1;stroke:#0753A1;stroke-width:3;stroke-miterlimit:10;}
	.st10{fill:none;stroke:#0753A1;stroke-width:12;stroke-miterlimit:10;}
	.st11{fill:#0753A1;stroke:#0753A1;stroke-width:12;stroke-linejoin:bevel;stroke-miterlimit:10;}
	.st12{opacity:0.5;}
	.st13{fill:none;stroke:#000000;stroke-width:8;stroke-miterlimit:10;}
	.st14{fill:none;stroke:#000000;stroke-width:12;stroke-miterlimit:10;}
	.st15{stroke:#000000;stroke-width:12;stroke-miterlimit:10;}
	.st16{fill:#0755A1;}
</style>
<g id="Warstwa_1">
</g>
<g id="Warstwa_2">
	<rect class="st2" width="843.59" height="482.21"/>
	<g>
		<g>
			<g>
				<g>
					<path class="st3" d="M199.09,342.72h-3.35l-9.16-6.23h-2.77v6.23h-2.17v-14.07h2.17v5.81h2.8l8.82-5.81h3.22l-5.33,3.52
						l-5.08,3.32l5.63,3.72L199.09,342.72z"/>
					<path class="st3" d="M220.57,342.72h-2.49l-2.01-3.21h-10.59l-1.99,3.21h-2.51l8.56-14.07h2.49L220.57,342.72z M207.16,336.69
						l-0.52,0.79h8.26l-0.5-0.79l-3.62-6.13L207.16,336.69z"/>
					<path class="st3" d="M237.69,328.65h2.17v14.07h-2.17l-12.5-11.34l0.06,2.01v9.33h-2.17v-14.07h2.15l12.5,11.34l-0.04-2.07
						V328.65z"/>
					<path class="st3" d="M260.89,341.89c-0.91,0.3-3.42,1.13-7.15,1.13c-7.32,0-10.37-3.16-10.37-7.34c0-4.18,3.06-7.33,10.37-7.33
						c3.74,0,6.25,0.82,7.15,1.13l-0.5,1.95c-1.69-0.5-3.9-1.05-6.65-1.05c-5.87,0-8.16,2.23-8.16,5.31c0,3.08,2.29,5.31,8.16,5.31
						c2.75,0,4.96-0.54,6.65-1.05L260.89,341.89z"/>
					<path class="st3" d="M264.19,342.72v-14.07h15.25v2.03h-13.09v3.78h11.88v2.03h-11.88v4.2h13.49v2.03H264.19z"/>
					<path class="st3" d="M283.35,342.72v-14.07h2.17v12.04H298v2.03H283.35z"/>
					<path class="st3" d="M319.67,342.72h-2.49l-2.01-3.21h-10.59l-1.99,3.21h-2.51l8.56-14.07h2.49L319.67,342.72z M306.26,336.69
						l-0.52,0.79H314l-0.5-0.79l-3.62-6.13L306.26,336.69z"/>
					<path class="st3" d="M322.19,328.65h11.15c3.01,0,5.43,1.15,5.43,4.52c0,3.33-2.47,4.46-5.45,4.44h-0.84l6.87,5.1h-3.38
						l-6.57-5.02h-5.05v5.02h-2.17V328.65z M333.36,335.66c1.81,0,3.18-0.64,3.18-2.49s-1.34-2.49-3.13-2.49h-9.04v4.98H333.36z"/>
					<path class="st3" d="M342.25,328.65h2.17v14.07h-2.17V328.65z"/>
					<path class="st3" d="M366.5,342.72h-2.49L362,339.5h-10.59l-1.99,3.21h-2.51l8.56-14.07h2.49L366.5,342.72z M353.09,336.69
						l-0.52,0.79h8.26l-0.5-0.79l-3.62-6.13L353.09,336.69z"/>
					<path class="st3" d="M378.78,328.65h11.15c3.01,0,5.43,1.15,5.43,4.52c0,3.33-2.47,4.46-5.45,4.44h-0.84l6.87,5.1h-3.38
						l-6.57-5.02h-5.05v5.02h-2.17V328.65z M389.95,335.66c1.81,0,3.18-0.64,3.18-2.49s-1.34-2.49-3.13-2.49h-9.04v4.98H389.95z"/>
					<path class="st3" d="M417.41,342.72h-2.49l-2.01-3.21h-10.59l-1.99,3.21h-2.51l8.56-14.07h2.49L417.41,342.72z M404,336.69
						l-0.52,0.79h8.26l-0.5-0.79l-3.62-6.13L404,336.69z"/>
					<path class="st3" d="M419.92,342.72v-14.07h6.89c7.32,0,10.37,2.85,10.37,7.03c0,4.18-3.05,7.03-10.37,7.03H419.92z
						 M422.09,330.68v10.01h4.72c5.85,0,8.14-1.93,8.14-5c0-3.07-2.29-5-8.14-5H422.09z"/>
					<path class="st3" d="M457.81,341.89c-0.9,0.3-3.42,1.13-7.15,1.13c-7.31,0-10.37-3.16-10.37-7.34c0-4.18,3.06-7.33,10.37-7.33
						c3.74,0,6.25,0.82,7.15,1.13l-0.5,1.95c-1.69-0.5-3.9-1.05-6.65-1.05c-5.87,0-8.16,2.23-8.16,5.31c0,3.08,2.29,5.31,8.16,5.31
						c2.75,0,4.97-0.54,6.65-1.05L457.81,341.89z"/>
					<path class="st3" d="M479.44,328.65l-8.78,9.79v4.28h-2.17v-4.28l-8.8-9.79h2.77l3.13,3.52l3.98,4.52l3.98-4.52l3.11-3.52
						H479.44z"/>
					<path class="st3" d="M491.7,342.72v-14.07h10.53c3.23,0,6.05,1.25,6.05,4.97s-2.82,4.98-6.05,4.98h-8.36v4.12H491.7z
						 M493.87,330.68v5.89h8.5c2.07,0,3.68-0.74,3.68-2.95c0-2.19-1.61-2.94-3.68-2.94H493.87z"/>
					<path class="st3" d="M511.58,328.65h11.15c3.01,0,5.43,1.15,5.43,4.52c0,3.33-2.47,4.46-5.45,4.44h-0.84l6.87,5.1h-3.38
						l-6.57-5.02h-5.05v5.02h-2.17V328.65z M522.75,335.66c1.81,0,3.18-0.64,3.18-2.49s-1.34-2.49-3.13-2.49h-9.04v4.98H522.75z"/>
					<path class="st3" d="M550.21,342.72h-2.49l-2.01-3.21h-10.59l-1.99,3.21h-2.51l8.56-14.07h2.49L550.21,342.72z M536.8,336.69
						l-0.52,0.79h8.26l-0.5-0.79l-3.62-6.13L536.8,336.69z"/>
					<path class="st3" d="M566.05,342.72l-2.19-6.03l-1.73-5l-1.75,5l-2.19,6.03h-2.31l-6.19-14.07h2.37l2.63,6.03l2.27,5.31
						l1.85-5.33l2.17-6.01h2.27l2.19,6.03l1.83,5.31l2.27-5.31l2.65-6.03h2.35l-6.17,14.07H566.05z"/>
					<path class="st3" d="M591.65,328.65h2.17v14.07h-2.17l-12.5-11.34l0.06,2.01v9.33h-2.17v-14.07h2.15l12.5,11.34l-0.04-2.07
						V328.65z"/>
					<path class="st3" d="M597.73,342.72v-14.07h15.25v2.03H599.9v3.78h11.88v2.03H599.9v4.2h13.48v2.03H597.73z"/>
					<path class="st3" d="M626.03,336.69v-2.03h9.59v1.45c0,5.19-4.34,6.91-9.59,6.91c-6.33,0-9.55-3.16-9.55-7.34
						c0-4.18,3.06-7.33,10.37-7.33c3.74,0,6.25,0.84,7.15,1.13l-0.5,1.93c-1.69-0.5-3.9-1.03-6.65-1.03c-5.87,0-8.16,2.23-8.16,5.31
						c0,3.08,2.45,5.31,7.33,5.31c4.5,0,7.42-1.51,7.42-4.16v-0.14H626.03z"/>
					<path class="st3" d="M648.36,328.35c6.21,0,9.45,3.15,9.45,7.33c0,4.18-3.23,7.34-9.45,7.34c-6.21,0-9.45-3.16-9.45-7.34
						C638.91,331.5,642.15,328.35,648.36,328.35z M648.36,340.99c4.86,0,7.22-2.23,7.22-5.31c0-3.07-2.35-5.31-7.22-5.31
						c-4.88,0-7.23,2.23-7.23,5.31C641.13,338.76,643.48,340.99,648.36,340.99z"/>
				</g>
				<g>
					<path class="st3" d="M119.6,312.07l3-23.29c0.25-2.14,1.98-3.1,4.58-3.1h8.65c2.59,0,4.17,1.02,4.58,3.1l4.27,20.09
						c0.25,1.07,0.86,1.37,1.93,1.37h0.76c1.07,0,1.68-0.31,1.88-1.37l4.32-20.09c0.46-2.14,2.03-3.1,4.63-3.1h8.75
						c2.64,0,4.37,0.97,4.63,3.1l2.95,22.07c0.31,2.8-0.1,3.05-4.22,3.05c-4.22,0-4.63-0.46-5.04-3.36l-2.49-19.93
						c-0.15-1.02-0.66-1.32-1.73-1.32h-0.86c-1.07,0-1.73,0.31-1.99,1.27l-4.37,20.09c-0.4,2.09-1.98,3.1-4.58,3.1h-8.39
						c-2.59,0-4.12-1.02-4.58-3.1l-4.37-20.09c-0.2-0.97-0.92-1.27-1.93-1.27h-0.86c-1.07,0-1.63,0.31-1.78,1.32l-2.64,21.26
						c-0.21,1.58-0.56,2.03-2.55,2.03C119.8,313.9,119.4,313.65,119.6,312.07z"/>
					<path class="st3" d="M185.88,310.85v-22.07c0-2.59,0.51-3.1,4.02-3.1h0.92c3.26,0,3.87,0.51,3.87,3.1v22.07
						c0,2.6-0.61,3.05-3.87,3.05h-0.92C186.39,313.9,185.88,313.45,185.88,310.85z"/>
					<path class="st3" d="M204.91,299.82c0-9.46,4.42-14.6,19.94-14.6c7.37,0,12.71,0.92,14.04,1.17c1.47,0.31,1.73,0.51,1.73,2.09
						c0,1.68-0.46,2.09-1.73,1.83c-2.29-0.31-6.61-1.12-12.16-1.07c-10.27,0.05-12.56,3.41-12.56,10.58
						c0,7.17,2.29,10.53,12.56,10.58c5.54,0.05,9.87-0.71,12.16-1.07c1.27-0.25,1.73,0.15,1.73,1.78c0,1.63-0.25,1.83-1.73,2.14
						c-1.32,0.25-6.66,1.17-14.04,1.17C209.33,314.41,204.91,309.28,204.91,299.82z"/>
					<path class="st3" d="M250.59,309.84v-21.06c0-2.54,0.41-3.1,4.17-3.1h0.76c3.71,0,3.87,0.76,3.87,4.02v5.95
						c0,1.12,0.46,1.68,1.73,1.68h16.48c1.27,0,1.78-0.56,1.78-1.68v-5.95c0-3.26,0.15-4.02,4.02-4.02h0.92
						c3.26,0,3.87,0.51,3.87,3.1v21.06c0,3.41-0.25,4.07-4.02,4.07h-0.91c-3.36,0-3.87-0.61-3.87-3.05v-7.93
						c0-1.12-0.51-1.68-1.78-1.68h-16.48c-1.27,0-1.73,0.56-1.73,1.68v7.93c0,2.6-0.76,3.05-3.97,3.05h-0.92
						C250.74,313.9,250.59,313.24,250.59,309.84z"/>
					<path class="st3" d="M327.4,307.8c-0.66-1.17-0.91-1.58-2.44-1.58h-17.75c-1.58,0-1.78,0.41-2.44,1.58l-2.29,4.27
						c-0.97,1.83-2.03,1.83-3.87,1.83c-2.14,0-2.85-0.51-2.14-1.83l12.92-23.8c1.17-2.14,2.14-2.6,4.78-2.6h7.89
						c2.64,0,3.61,0.51,4.73,2.6l12.41,22.63c1.32,2.39,0.46,3-3.26,3c-3.16,0-5.39-0.25-6.2-1.78L327.4,307.8z M323.02,302.46
						c1.02,0,1.27-0.66,0.92-1.38l-5.49-10.78c-0.46-0.92-0.97-1.07-2.03-1.07h-0.51c-1.07,0-1.53,0.15-2.03,1.07l-5.65,10.78
						c-0.36,0.71-0.05,1.38,0.92,1.38H323.02z"/>
					<path class="st3" d="M350.35,310.45v-7.63c0-1.12-0.51-1.68-1.78-1.68h-3c-1.37,0-1.58-0.4-1.58-1.93
						c0-1.32,0.21-1.88,1.58-1.88h3c1.27,0,1.78-0.56,1.78-1.68v-6.87c0-2.59,0.51-3.1,4.02-3.1h0.92c3.26,0,3.87,0.51,3.87,3.1
						v6.87c0,1.12,0.46,1.68,1.73,1.68h8.6c1.38,0,1.63,0.56,1.63,1.88c0,1.53-0.25,1.93-1.63,1.93h-8.6
						c-1.27,0-1.73,0.56-1.73,1.68v5.55c0,1.07,0.46,1.68,1.73,1.68h17.6c1.37,0,1.63,0.61,1.63,1.88c0,1.57-0.25,1.98-1.63,1.98
						h-24.01C351.06,313.9,350.35,313.19,350.35,310.45z"/>
					<path class="st3" d="M413.73,313.9c-3.51,0-4.02-0.46-4.02-3.05v-19.58c0-1.12-0.51-1.68-1.78-1.68h-11.65
						c-1.37,0-1.58-0.46-1.58-1.98c0-1.32,0.21-1.93,1.58-1.93h35.6c1.37,0,1.63,0.61,1.63,1.93c0,1.53-0.25,1.98-1.63,1.98h-11.65
						c-1.27,0-1.73,0.56-1.73,1.68v19.58c0,2.6-0.61,3.05-3.87,3.05H413.73z"/>
					<path class="st3" d="M436.37,299.77c0-8.75,3.2-14.8,20.85-14.8c17.7,0,20.85,6.05,20.85,14.8c0,8.69-3.15,14.8-20.85,14.8
						C439.57,314.57,436.37,308.46,436.37,299.77z M468.76,299.71c0-6.82-1.17-11.19-11.55-11.19c-10.32,0-11.59,4.32-11.59,11.19
						c0,6.92,1.27,11.29,11.59,11.29C467.6,311.01,468.76,306.63,468.76,299.71z"/>
					<path class="st3" d="M486.83,312.07l3-23.29c0.25-2.14,1.98-3.1,4.58-3.1h8.65c2.59,0,4.17,1.02,4.58,3.1l4.27,20.09
						c0.25,1.07,0.86,1.37,1.93,1.37h0.76c1.07,0,1.68-0.31,1.88-1.37l4.33-20.09c0.46-2.14,2.03-3.1,4.63-3.1h8.75
						c2.64,0,4.38,0.97,4.63,3.1l2.95,22.07c0.31,2.8-0.1,3.05-4.22,3.05c-4.22,0-4.63-0.46-5.04-3.36l-2.49-19.93
						c-0.15-1.02-0.66-1.32-1.73-1.32h-0.86c-1.07,0-1.73,0.31-1.98,1.27l-4.37,20.09c-0.41,2.09-1.99,3.1-4.58,3.1h-8.39
						c-2.59,0-4.12-1.02-4.58-3.1l-4.37-20.09c-0.21-0.97-0.92-1.27-1.93-1.27h-0.86c-1.07,0-1.63,0.31-1.78,1.32l-2.64,21.26
						c-0.2,1.58-0.56,2.03-2.54,2.03C487.04,313.9,486.63,313.65,486.83,312.07z"/>
					<path class="st3" d="M550.57,299.82c0-9.46,4.42-14.6,19.94-14.6c7.37,0,12.71,0.92,14.04,1.17c1.47,0.31,1.73,0.51,1.73,2.09
						c0,1.68-0.46,2.09-1.73,1.83c-2.29-0.31-6.61-1.12-12.16-1.07c-10.27,0.05-12.56,3.41-12.56,10.58
						c0,7.17,2.29,10.53,12.56,10.58c5.54,0.05,9.87-0.71,12.16-1.07c1.27-0.25,1.73,0.15,1.73,1.78c0,1.63-0.25,1.83-1.73,2.14
						c-1.32,0.25-6.66,1.17-14.04,1.17C555,314.41,550.57,309.28,550.57,299.82z"/>
					<path class="st3" d="M617.67,293.35c2.74-1.32,3.05-1.52,3.05-2.59c0-0.92-0.46-1.17-1.88-1.17h-22.13
						c-1.37,0-1.73-0.56-1.73-1.98c0-1.27,0.36-1.93,1.73-1.93h26.25c4.07,0,6.15,1.27,6.15,5.04c0,3.77-0.66,4.83-4.48,6.66
						l-18.21,8.9c-2.75,1.32-3.05,1.47-3.05,2.54c0,0.92,0.46,1.17,1.88,1.17h22.79c1.37,0,1.73,0.61,1.73,1.99
						c0,1.32-0.36,1.93-1.73,1.93h-26.86c-4.12,0-6.2-1.22-6.2-4.98s0.66-4.78,4.48-6.66L617.67,293.35z"/>
					<path class="st3" d="M666.96,307.8c-0.66-1.17-0.92-1.58-2.44-1.58h-17.75c-1.57,0-1.78,0.41-2.44,1.58l-2.29,4.27
						c-0.97,1.83-2.03,1.83-3.87,1.83c-2.14,0-2.85-0.51-2.14-1.83l12.92-23.8c1.17-2.14,2.14-2.6,4.78-2.6h7.88
						c2.64,0,3.61,0.51,4.73,2.6l12.41,22.63c1.32,2.39,0.46,3-3.26,3c-3.15,0-5.39-0.25-6.2-1.78L666.96,307.8z M662.58,302.46
						c1.02,0,1.27-0.66,0.92-1.38l-5.49-10.78c-0.46-0.92-0.97-1.07-2.03-1.07h-0.51c-1.07,0-1.53,0.15-2.03,1.07l-5.65,10.78
						c-0.36,0.71-0.05,1.38,0.92,1.38H662.58z"/>
					<path class="st3" d="M709.18,296.51c-0.51,0.4-0.71,0.61-0.71,1.22c0,0.56,0.2,0.76,0.71,1.22l12.77,10.98
						c1.02,0.86,2.09,1.93,2.09,2.6c0,0.86-1.47,1.37-4.98,1.37c-4.48,0-5.29-0.1-7.32-1.78l-10.28-9.21
						c-1.17-1.07-1.68-1.17-3.31-1.17h-0.35c-1.27,0-1.58,0.56-1.58,1.68v6.41c0,3.41-0.31,4.07-3.87,4.07h-0.76
						c-3.71,0-4.17-0.56-4.17-3.05v-21.06c0-3.3-0.1-4.12,4.17-4.12h0.76c3.76,0,3.87,0.82,3.87,4.12v6.61
						c0,1.12,0.31,1.68,1.58,1.68h0.35c1.53,0,1.99-0.25,3.1-1.17l11.39-9.2c2.34-1.93,3.26-2.04,5.08-2.04
						c2.49,0,3.56,0.26,3.56,1.02c0.05,0.36-0.31,0.71-0.81,1.12L709.18,296.51z"/>
				</g>
			</g>
		</g>
		<g>
			<path class="st3" d="M439.73,176.67l-17.94,17.94l-17.94-17.94h-10.17v3.86h0c4.09,0,7.42,3.32,7.44,7.4v18.77h0
				c0,4.1-3.34,7.44-7.44,7.44v3.86h18.74v-1.93h0c0,0,0,0,0,0v-1.93c-4.1,0-7.44-3.34-7.44-7.44h0v-18.74h0c0-0.01,0-0.02,0-0.04
				v-4.67l16.81,16.81l16.81-16.81v4.7c0,0,0,0,0,0.01h0v18.74h0c0,4.1-3.34,7.44-7.44,7.44v3.86c0,0,0,0,0,0h18.74v-1.93
				c0,0,0,0,0,0h0v-1.93h-0.04c-4.09-0.02-7.4-3.35-7.4-7.44h0v-18.74c0-4.1,3.34-7.43,7.44-7.43v-3.86c0,0,0,0,0,0l0,0H439.73z"/>
			<path class="st3" d="M423.72,225.44h-3.86c0,4.1-3.34,7.44-7.44,7.44v3.86h18.74v-3.86
				C427.06,232.88,423.72,229.55,423.72,225.44z"/>
			<rect x="419.86" y="206.71" class="st3" width="3.86" height="18.74"/>
			<path class="st3" d="M421.79,139.19c-21.73,0-39.41,17.68-39.41,39.41v37.48c0,10.53,4.1,20.42,11.54,27.87
				c7.44,7.44,17.34,11.54,27.86,11.54c21.73,0,39.41-17.68,39.41-39.41V178.6C461.2,156.87,443.52,139.19,421.79,139.19z
				 M457.34,216.07c0,19.6-15.95,35.54-35.54,35.54c-9.49,0-18.42-3.7-25.13-10.41c-6.72-6.72-10.41-15.64-10.41-25.14V178.6
				c0-19.6,15.95-35.54,35.54-35.54s35.54,15.95,35.54,35.54V216.07z"/>
			<path class="st3" d="M412.42,161.79L412.42,161.79h7.44v26.18h3.86v-26.18h7.44l0,0c4.1,0,7.44,3.34,7.44,7.44h3.86v-11.3h-11.3
				l0,0h-18.74l0,0h-11.3v11.3h3.86C404.98,165.13,408.32,161.79,412.42,161.79z"/>
		</g>
	</g>
</g>
</svg>
